<svg width="19" height="20" viewBox="0 0 19 20" fill="none" xmlns="http://www.w3.org/2000/svg">
<path d="M9.49864 5.64151C8.63688 5.64151 7.79447 5.89705 7.07795 6.37582C6.36142 6.85459 5.80296 7.53508 5.47318 8.33124C5.1434 9.1274 5.05711 10.0035 5.22523 10.8487C5.39335 11.6939 5.80833 12.4702 6.41768 13.0796C7.02704 13.689 7.80341 14.1039 8.64861 14.272C9.49381 14.4402 10.3699 14.3539 11.166 14.0241C11.9622 13.6943 12.6427 13.1359 13.1215 12.4193C13.6002 11.7028 13.8558 10.8604 13.8558 9.99864C13.8546 8.84343 13.3951 7.73587 12.5783 6.91901C11.7614 6.10215 10.6539 5.64271 9.49864 5.64151ZM9.49864 12.9034C8.92413 12.9034 8.36253 12.733 7.88485 12.4139C7.40716 12.0947 7.03485 11.641 6.815 11.1102C6.59514 10.5795 6.53762 9.99542 6.6497 9.43195C6.76178 8.86848 7.03843 8.35091 7.44467 7.94467C7.85091 7.53843 8.36848 7.26178 8.93195 7.1497C9.49542 7.03762 10.0795 7.09514 10.6102 7.315C11.141 7.53485 11.5947 7.90716 11.9139 8.38485C12.233 8.86253 12.4034 9.42413 12.4034 9.99864C12.4034 10.769 12.0974 11.5079 11.5526 12.0526C11.0079 12.5974 10.269 12.9034 9.49864 12.9034ZM17.4867 10.1947C17.4903 10.064 17.4903 9.93328 17.4867 9.80257L18.841 8.11055C18.9121 8.02171 18.9612 7.91743 18.9846 7.80612C19.0079 7.69481 19.0047 7.57957 18.9754 7.46969C18.7534 6.63512 18.4213 5.83381 17.9878 5.08688C17.931 4.98914 17.8522 4.90599 17.7577 4.84406C17.6631 4.78212 17.5554 4.74312 17.4431 4.73014L15.29 4.4905C15.2004 4.3961 15.1097 4.30532 15.0177 4.21818L14.7635 2.05959C14.7504 1.94722 14.7113 1.83946 14.6492 1.7449C14.5871 1.65034 14.5038 1.5716 14.4059 1.51495C13.6586 1.08227 12.8574 0.750483 12.0231 0.528238C11.9131 0.499006 11.7978 0.496016 11.6865 0.519509C11.5752 0.543003 11.4709 0.592321 11.3822 0.66349L9.69471 2.01057C9.564 2.01057 9.43328 2.01057 9.30257 2.01057L7.61055 0.658952C7.52171 0.587938 7.41743 0.538784 7.30612 0.515449C7.19481 0.492114 7.07957 0.495251 6.96969 0.524607C6.13525 0.747027 5.334 1.07913 4.58688 1.51222C4.48914 1.56898 4.40599 1.64777 4.34406 1.74232C4.28212 1.83688 4.24312 1.94458 4.23014 2.05686L3.9905 4.21364C3.8961 4.30381 3.80532 4.39458 3.71818 4.48596L1.55959 4.73378C1.44722 4.74685 1.33946 4.78599 1.2449 4.84809C1.15034 4.91018 1.0716 4.99351 1.01495 5.09142C0.582271 5.83864 0.250483 6.63987 0.028238 7.47423C-0.000993909 7.58418 -0.00398373 7.69946 0.0195094 7.81077C0.0430026 7.92209 0.0923215 8.02633 0.16349 8.11509L1.51057 9.80257C1.51057 9.93328 1.51057 10.064 1.51057 10.1947L0.158952 11.8867C0.0879382 11.9756 0.0387839 12.0798 0.015449 12.1912C-0.00788586 12.3025 -0.00474907 12.4177 0.0246069 12.5276C0.246629 13.3622 0.578751 14.1635 1.01222 14.9104C1.06898 15.0081 1.14777 15.0913 1.24232 15.1532C1.33688 15.2152 1.44458 15.2542 1.55686 15.2671L3.71001 15.5068C3.80018 15.6012 3.89095 15.692 3.98233 15.7791L4.23378 17.9377C4.24685 18.0501 4.28599 18.1578 4.34809 18.2524C4.41018 18.3469 4.49351 18.4257 4.59142 18.4823C5.33864 18.915 6.13987 19.2468 6.97423 19.469C7.08418 19.4983 7.19946 19.5013 7.31077 19.4778C7.42209 19.4543 7.52633 19.405 7.61509 19.3338L9.30257 17.9867C9.43328 17.9903 9.564 17.9903 9.69471 17.9867L11.3867 19.341C11.4756 19.4121 11.5798 19.4612 11.6912 19.4846C11.8025 19.5079 11.9177 19.5047 12.0276 19.4754C12.8622 19.2534 13.6635 18.9213 14.4104 18.4878C14.5081 18.431 14.5913 18.3522 14.6532 18.2577C14.7152 18.1631 14.7542 18.0554 14.7671 17.9431L15.0068 15.79C15.1012 15.7004 15.192 15.6097 15.2791 15.5177L17.4377 15.2635C17.5501 15.2504 17.6578 15.2113 17.7524 15.1492C17.8469 15.0871 17.9257 15.0038 17.9823 14.9059C18.415 14.1586 18.7468 13.3574 18.969 12.5231C18.9983 12.4131 19.0013 12.2978 18.9778 12.1865C18.9543 12.0752 18.905 11.9709 18.8338 11.8822L17.4867 10.1947ZM16.0253 9.60468C16.0407 9.86709 16.0407 10.1302 16.0253 10.3926C16.0144 10.5723 16.0707 10.7495 16.1832 10.89L17.4713 12.4995C17.3235 12.9692 17.1342 13.4248 16.9058 13.8611L14.8543 14.0934C14.6756 14.1133 14.5107 14.1987 14.3913 14.3331C14.2166 14.5296 14.0305 14.7157 13.834 14.8904C13.6996 15.0098 13.6142 15.1747 13.5943 15.3534L13.3665 17.403C12.9303 17.6316 12.4747 17.8209 12.0049 17.9686L10.3946 16.6805C10.2657 16.5775 10.1056 16.5215 9.94071 16.5216H9.89714C9.63472 16.5371 9.37163 16.5371 9.10922 16.5216C8.92956 16.5108 8.75229 16.5671 8.61178 16.6796L6.99783 17.9686C6.52811 17.8208 6.07245 17.6315 5.63623 17.403L5.40385 15.3543C5.38401 15.1756 5.29863 15.0107 5.1642 14.8913C4.96769 14.7166 4.78158 14.5305 4.60685 14.334C4.48752 14.1996 4.32257 14.1142 4.14391 14.0943L2.09424 13.8656C1.86567 13.4294 1.67641 12.9738 1.52872 12.504L2.8168 10.8937C2.92927 10.7532 2.98556 10.5759 2.97475 10.3962C2.95932 10.1338 2.95932 9.87072 2.97475 9.60831C2.98556 9.42866 2.92927 9.25138 2.8168 9.11087L1.52872 7.49783C1.67653 7.02811 1.86578 6.57245 2.09424 6.13623L4.143 5.90385C4.32166 5.88401 4.48661 5.79863 4.60595 5.6642C4.78068 5.46769 4.96678 5.28158 5.1633 5.10685C5.29825 4.98744 5.38399 4.82211 5.40385 4.643L5.63169 2.59424C6.06786 2.36567 6.52353 2.17641 6.99329 2.02872L8.60361 3.3168C8.74412 3.42927 8.92139 3.48556 9.10105 3.47475C9.36346 3.45932 9.62655 3.45932 9.88897 3.47475C10.0686 3.48556 10.2459 3.42927 10.3864 3.3168L11.9995 2.02872C12.4692 2.17653 12.9248 2.36578 13.3611 2.59424L13.5934 4.643C13.6133 4.82166 13.6987 4.98661 13.8331 5.10595C14.0296 5.28068 14.2157 5.46678 14.3904 5.6633C14.5098 5.79772 14.6747 5.88311 14.8534 5.90294L16.903 6.13078C17.1316 6.56695 17.3209 7.02262 17.4686 7.49238L16.1805 9.1027C16.0669 9.2444 16.0106 9.42349 16.0225 9.60468H16.0253Z" fill="black"/>
</svg>
