<svg width="17" height="21" viewBox="0 0 17 21" fill="none" xmlns="http://www.w3.org/2000/svg">
<path d="M15.75 0.75H3C2.20435 0.75 1.44129 1.06607 0.87868 1.62868C0.31607 2.19129 0 2.95435 0 3.75V19.5C0 19.6989 0.0790178 19.8897 0.21967 20.0303C0.360322 20.171 0.551088 20.25 0.75 20.25H14.25C14.4489 20.25 14.6397 20.171 14.7803 20.0303C14.921 19.8897 15 19.6989 15 19.5C15 19.3011 14.921 19.1103 14.7803 18.9697C14.6397 18.829 14.4489 18.75 14.25 18.75H1.5C1.5 18.3522 1.65804 17.9706 1.93934 17.6893C2.22064 17.408 2.60218 17.25 3 17.25H15.75C15.9489 17.25 16.1397 17.171 16.2803 17.0303C16.421 16.8897 16.5 16.6989 16.5 16.5V1.5C16.5 1.30109 16.421 1.11032 16.2803 0.96967C16.1397 0.829018 15.9489 0.75 15.75 0.75ZM7.5 2.25H12V9L10.1991 7.65C10.0692 7.55263 9.91134 7.5 9.74906 7.5C9.58679 7.5 9.42888 7.55263 9.29906 7.65L7.5 9V2.25ZM15 15.75H3C2.47326 15.7493 1.95572 15.888 1.5 16.1522V3.75C1.5 3.35218 1.65804 2.97064 1.93934 2.68934C2.22064 2.40804 2.60218 2.25 3 2.25H6V10.5C6 10.6393 6.03879 10.7758 6.11201 10.8943C6.18524 11.0128 6.29001 11.1085 6.41459 11.1708C6.53917 11.2331 6.67863 11.2595 6.81735 11.247C6.95608 11.2345 7.08857 11.1836 7.2 11.1L9.75 9.1875L12.3009 11.1C12.4305 11.1972 12.588 11.2498 12.75 11.25C12.9489 11.25 13.1397 11.171 13.2803 11.0303C13.421 10.8897 13.5 10.6989 13.5 10.5V2.25H15V15.75Z" fill="black"/>
</svg>
