<svg width="20" height="19" viewBox="0 0 20 19" fill="none" xmlns="http://www.w3.org/2000/svg">
<path d="M8.625 17.75C8.625 18.0484 8.50647 18.3345 8.2955 18.5455C8.08452 18.7565 7.79837 18.875 7.5 18.875H1.5C1.20163 18.875 0.915483 18.7565 0.704505 18.5455C0.493526 18.3345 0.375 18.0484 0.375 17.75V1.25C0.375 0.951631 0.493526 0.665483 0.704505 0.454505C0.915483 0.243526 1.20163 0.125 1.5 0.125H7.5C7.79837 0.125 8.08452 0.243526 8.2955 0.454505C8.50647 0.665483 8.625 0.951631 8.625 1.25C8.625 1.54837 8.50647 1.83452 8.2955 2.0455C8.08452 2.25647 7.79837 2.375 7.5 2.375H2.625V16.625H7.5C7.79837 16.625 8.08452 16.7435 8.2955 16.9545C8.50647 17.1655 8.625 17.4516 8.625 17.75ZM18.7959 8.70406L15.0459 4.95406C14.8346 4.74272 14.5479 4.62399 14.2491 4.62399C13.9502 4.62399 13.6635 4.74272 13.4522 4.95406C13.2408 5.16541 13.1221 5.45205 13.1221 5.75094C13.1221 6.04982 13.2408 6.33647 13.4522 6.54781L15.2812 8.375H7.5C7.20163 8.375 6.91548 8.49353 6.7045 8.7045C6.49353 8.91548 6.375 9.20163 6.375 9.5C6.375 9.79837 6.49353 10.0845 6.7045 10.2955C6.91548 10.5065 7.20163 10.625 7.5 10.625H15.2812L13.4512 12.4541C13.2399 12.6654 13.1212 12.9521 13.1212 13.2509C13.1212 13.5498 13.2399 13.8365 13.4512 14.0478C13.6626 14.2592 13.9492 14.3779 14.2481 14.3779C14.547 14.3779 14.8337 14.2592 15.045 14.0478L18.795 10.2978C18.8999 10.1934 18.9832 10.0692 19.0401 9.9325C19.097 9.79579 19.1263 9.6492 19.1264 9.50113C19.1264 9.35307 19.0973 9.20644 19.0406 9.06966C18.9839 8.93288 18.9008 8.80864 18.7959 8.70406Z" fill="black"/>
</svg>
