<svg width="19" height="19" viewBox="0 0 19 19" fill="none" xmlns="http://www.w3.org/2000/svg">
<path d="M18.0011 7.99951H7.32199L17.4386 5.32857C17.5343 5.30334 17.6241 5.25939 17.7028 5.19927C17.7815 5.13915 17.8475 5.06403 17.897 4.97827C17.9465 4.8925 17.9785 4.79778 17.9913 4.69958C18.004 4.60137 17.9971 4.50161 17.9711 4.40607L17.2061 1.59357C17.1008 1.21518 16.8506 0.893507 16.5099 0.698208C16.1691 0.502908 15.7651 0.44971 15.3854 0.550134L1.10824 4.31888C0.918142 4.36823 0.739798 4.45501 0.58365 4.57413C0.427502 4.69325 0.296687 4.84233 0.198865 5.01263C0.100497 5.18085 0.0369429 5.36712 0.0119802 5.56038C-0.0129826 5.75364 0.0011549 5.94995 0.0535526 6.13763L0.751053 8.70826C0.751053 8.72138 0.751053 8.73545 0.751053 8.74951V16.9995C0.751053 17.3973 0.909088 17.7789 1.19039 18.0602C1.4717 18.3415 1.85323 18.4995 2.25105 18.4995H17.2511C17.6489 18.4995 18.0304 18.3415 18.3117 18.0602C18.593 17.7789 18.7511 17.3973 18.7511 16.9995V8.74951C18.7511 8.5506 18.672 8.35983 18.5314 8.21918C18.3907 8.07853 18.2 7.99951 18.0011 7.99951ZM15.7661 1.99951L16.3286 4.06857L14.2079 4.63107L11.5717 3.10857L15.7661 1.99951ZM9.51387 3.64951L12.1501 5.17201L8.68699 6.08607L6.05074 4.56545L9.51387 3.64951ZM2.07012 7.83263L1.50762 5.76263L3.99199 5.10638L6.62824 6.63076L2.07012 7.83263ZM17.2511 16.9995H2.25105V9.49951H17.2511V16.9995Z" fill="black"/>
</svg>
