<svg width="26" height="29" viewBox="0 0 26 29" fill="none" xmlns="http://www.w3.org/2000/svg">
<path d="M23.7667 28.375L14.8417 18.6625C14.1333 19.2792 13.3188 19.7674 12.3979 20.1271C11.4771 20.4868 10.4972 20.6667 9.45833 20.6667C6.88472 20.6667 4.70683 19.6964 2.92467 17.756C1.1425 15.8156 0.250945 13.4455 0.250001 10.6458C0.249056 7.84617 1.14061 5.47611 2.92467 3.53567C4.70872 1.59522 6.88661 0.625 9.45833 0.625C12.0301 0.625 14.2084 1.59522 15.9934 3.53567C17.7784 5.47611 18.6695 7.84617 18.6667 10.6458C18.6667 11.7764 18.5014 12.8427 18.1708 13.8448C17.8403 14.8469 17.3917 15.7333 16.825 16.5042L25.75 26.2167L23.7667 28.375ZM9.45833 17.5833C11.2292 17.5833 12.7346 16.9091 13.9747 15.5607C15.2147 14.2122 15.8343 12.5739 15.8333 10.6458C15.8324 8.71772 15.2128 7.07996 13.9747 5.73254C12.7365 4.38513 11.2311 3.71039 9.45833 3.70833C7.68561 3.70628 6.18064 4.38101 4.94342 5.73254C3.7062 7.08407 3.08617 8.72183 3.08333 10.6458C3.0805 12.5698 3.70053 14.2081 4.94342 15.5607C6.18631 16.9132 7.69128 17.5874 9.45833 17.5833Z" fill="black"/>
</svg>
