<svg width="20" height="19" viewBox="0 0 20 19" fill="none" xmlns="http://www.w3.org/2000/svg">
<path d="M17.25 0.5H2.25C1.65326 0.5 1.08097 0.737053 0.65901 1.15901C0.237053 1.58097 0 2.15326 0 2.75V13.25C0 13.8467 0.237053 14.419 0.65901 14.841C1.08097 15.2629 1.65326 15.5 2.25 15.5H17.25C17.8467 15.5 18.419 15.2629 18.841 14.841C19.2629 14.419 19.5 13.8467 19.5 13.25V2.75C19.5 2.15326 19.2629 1.58097 18.841 1.15901C18.419 0.737053 17.8467 0.5 17.25 0.5ZM18 13.25C18 13.4489 17.921 13.6397 17.7803 13.7803C17.6397 13.921 17.4489 14 17.25 14H2.25C2.05109 14 1.86032 13.921 1.71967 13.7803C1.57902 13.6397 1.5 13.4489 1.5 13.25V2.75C1.5 2.55109 1.57902 2.36032 1.71967 2.21967C1.86032 2.07902 2.05109 2 2.25 2H17.25C17.4489 2 17.6397 2.07902 17.7803 2.21967C17.921 2.36032 18 2.55109 18 2.75V13.25ZM13.5 17.75C13.5 17.9489 13.421 18.1397 13.2803 18.2803C13.1397 18.421 12.9489 18.5 12.75 18.5H6.75C6.55109 18.5 6.36032 18.421 6.21967 18.2803C6.07902 18.1397 6 17.9489 6 17.75C6 17.5511 6.07902 17.3603 6.21967 17.2197C6.36032 17.079 6.55109 17 6.75 17H12.75C12.9489 17 13.1397 17.079 13.2803 17.2197C13.421 17.3603 13.5 17.5511 13.5 17.75ZM13.1663 7.37562L8.66625 4.37562C8.55327 4.30025 8.42195 4.25696 8.28629 4.25039C8.15064 4.24382 8.01575 4.27421 7.89601 4.33831C7.77628 4.40241 7.67619 4.49782 7.60645 4.61436C7.5367 4.7309 7.49991 4.86419 7.5 5V11C7.49991 11.1358 7.5367 11.2691 7.60645 11.3856C7.67619 11.5022 7.77628 11.5976 7.89601 11.6617C8.01575 11.7258 8.15064 11.7562 8.28629 11.7496C8.42195 11.743 8.55327 11.6998 8.66625 11.6244L13.1663 8.62438C13.2691 8.55591 13.3535 8.46309 13.4118 8.35416C13.4702 8.24523 13.5007 8.12357 13.5007 8C13.5007 7.87643 13.4702 7.75477 13.4118 7.64584C13.3535 7.53691 13.2691 7.44409 13.1663 7.37562ZM9 9.59844V6.40625L11.3981 8L9 9.59844Z" fill="black"/>
</svg>
